<svg width="512" height="512" viewBox="0 0 512 512" fill="none" xmlns="http://www.w3.org/2000/svg">
<rect x="109" y="177" width="380" height="128" rx="28" fill="#808080" stroke="white" stroke-width="12"/>
<rect x="53" y="261" width="380" height="128" rx="28" fill="#808080" stroke="white" stroke-width="12"/>
<rect x="11" y="341" width="380" height="128" rx="28" fill="#808080" stroke="white" stroke-width="12"/>
<path d="M229.5 98C222.5 110.5 229.5 124.5 195 137C229.5 137 229.5 171.5 229.5 171.5C229.5 171.5 233 137 267 137C229.5 131 229.5 98 229.5 98Z" fill="#00A0D2"/>
<path d="M92.8333 74C78.0555 100.361 92.8333 129.884 20 156.245C92.8333 156.245 92.8333 229 92.8333 229C92.8333 229 100.222 156.245 172 156.245C92.8333 143.592 92.8333 74 92.8333 74Z" fill="#00A0D2"/>
<path d="M170.5 37C163.5 49.5 170.5 63.5 136 76C170.5 76 170.5 110.5 170.5 110.5C170.5 110.5 174 76 208 76C170.5 70 170.5 37 170.5 37Z" fill="#00A0D2"/>
</svg>
